<svg width="50px" height="50px" viewBox="0 0 50 50" version="1.1" xmlns="http://www.w3.org/2000/svg" xmlns:xlink="http://www.w3.org/1999/xlink">
	<g stroke="none" stroke-width="1" fill="none" fill-rule="evenodd">
		<g transform="translate(-650.000000, -218.000000)">
			<g id="Group" transform="translate(530.000000, 136.000000)">
				<g id="Group-8" transform="translate(0.000000, 82.000000)">
					<g id="Group-10">
						<g id="Google" transform="translate(120.000000, 0.000000)">
							<circle id="Oval-3" stroke="#EBEBEB" fill="#FFFFFF" fill-rule="nonzero" cx="25" cy="25" r="24.5"></circle>
							<g id="google_icon" transform="translate(5.000000, 6.000000)">
								<g id="logo_googleg_48dp" transform="translate(6.029412, 4.875000)">
									<path d="M28.3623544,14.9573865 C28.3623544,13.920341 28.2702688,12.923182 28.0992527,11.9659093 L14.4705887,11.9659093 L14.4705887,17.623125 L22.2583967,17.623125 C21.9229422,19.4512499 20.9034234,21.0001703 19.3708564,22.0372157 L19.3708564,25.7067611 L24.0474878,25.7067611 C26.7837446,23.1606816 28.3623544,19.4113636 28.3623544,14.9573865 L28.3623544,14.9573865 Z" id="Shape" fill="#4285F4"></path>
									<path d="M14.4705889,29.25 C18.3776479,29.25 21.653263,27.9403977 24.0474877,25.7067614 L19.3708565,22.0372159 C18.075081,22.9147159 16.4175408,23.4332387 14.4705889,23.4332387 C10.7016582,23.4332387 7.51155111,20.8605682 6.37363661,17.4037501 L1.5391444,17.4037501 L1.5391444,21.1929546 C3.92021404,25.9726705 8.81390411,29.25 14.4705889,29.25 L14.4705889,29.25 Z" id="Shape" fill="#34A853"></path>
									<path d="M6.37363642,17.40375 C6.08422466,16.52625 5.91978615,15.5889204 5.91978615,14.625 C5.91978615,13.6610796 6.08422466,12.72375 6.37363642,11.84625 L6.37363642,8.05704552 L1.5391444,8.05704552 C0.559090914,10.0314205 0,12.2650568 0,14.625 C0,16.9849432 0.559090914,19.2185795 1.5391444,21.1929545 L6.37363642,17.40375 L6.37363642,17.40375 Z" id="Shape" fill="#FBBC05"></path>
									<path d="M14.4705888,5.81676133 C16.5951344,5.81676133 18.5026211,6.55465906 20.0023003,8.00386359 L24.1527283,3.80914771 C21.6466854,1.44920454 18.3710703,0 14.4705888,0 C8.81390408,0 3.92021402,3.27732953 1.5391444,8.05704541 L6.37363659,11.8462499 C7.51155108,8.38943177 10.7016582,5.81676133 14.4705888,5.81676133 L14.4705888,5.81676133 Z" id="Shape" fill="#EA4335"></path>
								</g>
							</g>
						</g>
					</g>
				</g>
			</g>
		</g>
	</g>
</svg>