<svg width="48" height="48" fill="none" xmlns="http://www.w3.org/2000/svg">
    <circle cx="24" cy="24" r="24" fill="#2787F5"></circle>
    <path d="M27.68 12C34.4 12 36 13.6 36 20.32v7.36C36 34.4 34.4 36 27.68 36h-7.36C13.6 36 12 34.4 12 27.68v-7.36C12 13.6 13.6 12 20.32 12h7.36z" fill="#fff"></path>
    <path d="M18.25 19.5H16.5c-.5 0-.6.235-.6.495 0 .463.594 2.762 2.763 5.803C20.109 27.874 22.146 29 24 29c1.113 0 1.25-.25 1.25-.68v-1.57c0-.5.106-.6.458-.6.26 0 .705.13 1.743 1.131C28.637 28.468 28.833 29 29.5 29h1.75c.5 0 .75-.25.605-.743-.158-.492-.724-1.206-1.476-2.051-.408-.482-1.02-1.001-1.205-1.26-.26-.335-.185-.483 0-.78l.031-.044c.264-.375 2.117-3.032 2.324-3.979.11-.37 0-.643-.53-.643h-1.75c-.445 0-.65.235-.761.495 0 0-.89 2.17-2.15 3.578-.409.408-.594.538-.816.538-.112 0-.273-.13-.273-.5v-3.468c0-.445-.129-.643-.5-.643H22c-.278 0-.445.206-.445.402 0 .422.63.52.695 1.706v2.577c0 .565-.102.667-.324.667-.593 0-2.036-2.178-2.892-4.672-.168-.484-.336-.68-.784-.68z" fill="#2787F5"></path>
</svg>